<svg t="1625807188662" class="icon" viewBox="0 0 1024 1024" version="1.1" xmlns="http://www.w3.org/2000/svg" p-id="7427"
  width="200" height="200">
  <path
    d="M225.353143 911.104h-149.942857a36.278857 36.278857 0 0 1-36.315429-36.352c0-20.114286 16.237714-36.352 36.352-36.352h149.942857a145.371429 145.371429 0 0 1 281.6 0h440.685715c20.114286 0 36.315429 16.237714 36.315428 36.352s-16.237714 36.352-36.315428 36.352H506.843429a145.371429 145.371429 0 0 1-140.8 109.129143 145.261714 145.261714 0 0 1-140.690286-109.129143z m290.633143-363.337143H75.446857a36.278857 36.278857 0 0 1-36.352-36.352c0-20.114286 16.237714-36.315429 36.352-36.315428h440.685714a145.371429 145.371429 0 0 1 281.6 0h149.942858c20.114286 0 36.315429 16.201143 36.315428 36.315428s-16.237714 36.352-36.315428 36.352h-150.089143a145.371429 145.371429 0 0 1-281.6 0zM225.353143 184.356571h-149.942857a36.278857 36.278857 0 0 1-36.315429-36.352c0-20.114286 16.237714-36.352 36.352-36.352h149.942857a145.371429 145.371429 0 0 1 281.6 0h440.685715a36.205714 36.205714 0 0 1 31.414857 18.176 36.205714 36.205714 0 0 1 0 36.352 36.461714 36.461714 0 0 1-31.451429 18.176H506.88a145.371429 145.371429 0 0 1-140.8 109.129143 145.261714 145.261714 0 0 1-140.690286-109.129143z m140.8 36.315429a72.777143 72.777143 0 0 0 62.976-108.982857 72.777143 72.777143 0 0 0-135.643429 36.315428c0 40.118857 32.438857 72.667429 72.667429 72.667429z m290.633143 363.446857a72.740571 72.740571 0 0 0 0-145.371428 72.740571 72.740571 0 0 0 0 145.371428z m-290.633143 363.300572a72.740571 72.740571 0 0 0 0-145.371429 72.740571 72.740571 0 0 0 0 145.371429z"
    p-id="7428" fill="#ffffff"></path>
</svg>