<svg t="1625804758628" class="icon" viewBox="0 0 1024 1024" version="1.1" xmlns="http://www.w3.org/2000/svg"
  p-id="10906" width="200" height="200">
  <path
    d="M950.857143 438.857143a73.142857 73.142857 0 0 1 73.142857 73.142857v438.857143a73.142857 73.142857 0 0 1-73.142857 73.142857H512a73.142857 73.142857 0 0 1-73.142857-73.142857v-82.066286H278.674286l53.979428 53.979429a18.285714 18.285714 0 0 1 0 25.856l-25.856 25.856a18.285714 18.285714 0 0 1-25.856 0l-103.204571-103.131429a18.797714 18.797714 0 0 1-0.219429-0.256l-25.892571-25.856a18.249143 18.249143 0 0 1 0-25.892571l25.892571-25.856 0.292572-0.219429 103.131428-103.204571a18.285714 18.285714 0 0 1 25.856 0l25.856 25.856a18.285714 18.285714 0 0 1 0 25.856l-53.833143 53.906285L438.857143 795.648V512a73.142857 73.142857 0 0 1 73.142857-73.142857h438.857143z m-201.142857 329.142857h-182.857143a18.285714 18.285714 0 0 0-17.993143 14.994286L548.571429 786.285714v36.571429a18.285714 18.285714 0 0 0 14.994285 17.993143l3.291429 0.292571h182.857143a18.285714 18.285714 0 0 0 17.993143-14.994286L768 822.857143v-36.571429a18.285714 18.285714 0 0 0-18.285714-18.285714z m146.285714-146.285714h-329.142857a18.285714 18.285714 0 0 0-17.993143 14.994285L548.571429 640v36.571429a18.285714 18.285714 0 0 0 14.994285 17.993142l3.291429 0.292572h329.142857a18.285714 18.285714 0 0 0 17.993143-14.994286L914.285714 676.571429v-36.571429a18.285714 18.285714 0 0 0-18.285714-18.285714zM512 0a73.142857 73.142857 0 0 1 73.142857 73.142857v81.993143l160.146286 0.036571-53.942857-53.942857a18.285714 18.285714 0 0 1 0-25.856l25.856-25.856a18.285714 18.285714 0 0 1 25.856 0l129.316571 129.28a18.285714 18.285714 0 0 1 0 25.856l-129.316571 129.316572a18.285714 18.285714 0 0 1-25.856 0l-25.856-25.856a18.285714 18.285714 0 0 1 0-25.856l53.942857-53.942857L585.142857 228.278857V365.714286h-73.142857a146.285714 146.285714 0 0 0-146.102857 138.971428L365.714286 512v73.142857H73.142857a73.142857 73.142857 0 0 1-73.142857-73.142857V73.142857a73.142857 73.142857 0 0 1 73.142857-73.142857h438.857143zM310.857143 329.142857h-182.857143a18.285714 18.285714 0 0 0-17.993143 14.994286L109.714286 347.428571v36.571429a18.285714 18.285714 0 0 0 14.994285 17.993143L128 402.285714h182.857143a18.285714 18.285714 0 0 0 17.993143-14.994285L329.142857 384v-36.571429a18.285714 18.285714 0 0 0-18.285714-18.285714z m146.285714-146.285714h-329.142857a18.285714 18.285714 0 0 0-17.993143 14.994286L109.714286 201.142857v36.571429a18.285714 18.285714 0 0 0 14.994285 17.993143L128 256h329.142857a18.285714 18.285714 0 0 0 17.993143-14.994286L475.428571 237.714286v-36.571429a18.285714 18.285714 0 0 0-18.285714-18.285714z"
    p-id="10907" fill="#ffffff"></path>
</svg>