<svg t="1625804700902" class="icon" viewBox="0 0 1318 1024" version="1.1" xmlns="http://www.w3.org/2000/svg" p-id="8013"
  width="200" height="200">
  <path
    d="M400.333032 410.526697v278.00905H0.463348v-278.00905h399.869684zM311.833484 0h203.873303L400.333032 370.678733H0.463348l311.370136-370.678733z m486.515837 0h203.873303l311.370136 370.678733h-400.333031l-115.373756-370.678733z m-243.257918 0L456.861538 370.678733h399.869684l-97.766516-370.678733h-203.873303z m758.501357 741.357466v278.00905h-399.869683v-278.00905h399.869683z m-351.218099 150.588235a401.723077 401.723077 0 0 1 122.323982 78.305883h46.334841a435.084163 435.084163 0 0 0-169.58552-110.740272v32.434389z m0 46.334842v34.287783H1019.366516a351.2181 351.2181 0 0 0-56.991855-34.287783z m225.650678 34.287783h40.774661a509.683258 509.683258 0 0 0-261.328507-180.705883h-5.560181v27.800905a475.858824 475.858824 0 0 1 225.650679 152.904978z m76.915837-23.630769v-46.334842a556.0181 556.0181 0 0 0-134.37104-108.886878h-56.991855a526.363801 526.363801 0 0 1 190.899547 156.611765z m0-107.960181V792.325792h-59.771945a602.352941 602.352941 0 0 1 59.771945 48.651584z m-408.209954-97.303168v278.00905H455.934842v-278.00905h399.869683z m-351.2181 150.588235a402.649774 402.649774 0 0 1 122.323982 78.305883h46.334842a434.620814 434.620814 0 0 0-169.585521-110.740272v32.434389z m0 46.334842v34.287783h56.991855a349.364706 349.364706 0 0 0-56.991855-34.287783z m225.650679 34.287783h40.774661a509.683258 509.683258 0 0 0-261.328507-180.705882h-5.560181v27.800904a476.78552 476.78552 0 0 1 225.650678 152.904978z m76.915837-23.630769v-46.334842a556.0181 556.0181 0 0 0-134.371041-108.886878h-56.991855a524.510407 524.510407 0 0 1 191.362896 156.611765z m0-107.960181v-48.651584h-59.771946a582.892308 582.892308 0 0 1 59.771946 48.651584z m-408.209955-97.303168v278.00905H0v-278.00905h399.869683z m-351.218099 150.588236a401.723077 401.723077 0 0 1 122.323982 78.305882h46.334841a435.547511 435.547511 0 0 0-169.58552-110.740272v32.43439z m0 46.334841v34.287783h56.991855a347.511312 347.511312 0 0 0-56.991855-34.287783z m225.650678 34.287783h42.628055a509.683258 509.683258 0 0 0-261.328507-180.705882h-5.560181v27.800905a476.322172 476.322172 0 0 1 225.650679 152.904977z m76.915838-23.630769v-46.334842a556.0181 556.0181 0 0 0-134.371041-108.886878H159.855204a525.437104 525.437104 0 0 1 191.362896 156.611765z m0-107.960181V796.959276H291.446154a602.352941 602.352941 0 0 1 59.771946 48.651584z m961.911312-429.060634v278.00905h-399.869683v-278.00905h399.869683z m-351.2181 151.051584a396.626244 396.626244 0 0 1 122.323982 78.305882h46.334842a434.157466 434.157466 0 0 0-169.585521-110.740271v32.434389z m0 46.334842v34.287782h56.991855a351.2181 351.2181 0 0 0-56.991855-34.287782z m225.650679 34.287782h40.774661a509.683258 509.683258 0 0 0-261.328507-180.705882h-5.560181v27.800905a474.932127 474.932127 0 0 1 225.650679 152.904977z m76.915837-23.630769v-46.334841a556.0181 556.0181 0 0 0-134.371041-108.886878h-56.991855a525.900452 525.900452 0 0 1 190.899548 157.075113z m0-107.960181V467.9819H1204.705882a609.303167 609.303167 0 0 1 59.771946 48.651584z m-408.209955-97.303167v278.00905H455.934842v-278.00905h399.869683z m-351.218099 151.051583A397.552941 397.552941 0 0 1 627.373756 648.687783h46.334841a433.694118 433.694118 0 0 0-169.58552-110.740272v32.434389z m0 46.334842v34.287783h56.991855a349.364706 349.364706 0 0 0-56.991855-34.287783z m225.650678 34.287783h40.774661a509.683258 509.683258 0 0 0-261.328507-180.705882h-5.560181v27.800905a475.858824 475.858824 0 0 1 225.650679 152.904977z m76.915838-23.630769v-46.334842a556.0181 556.0181 0 0 0-134.371041-108.886878H616.253394a524.510407 524.510407 0 0 1 191.362896 157.075113z m0-107.960181v-48.651584h-59.771946a588.915837 588.915837 0 0 1 59.771946 48.651584zM48.188235 572.698643a396.626244 396.626244 0 0 1 122.323982 78.305882h46.334842a434.620814 434.620814 0 0 0-169.585521-110.740272v32.43439z m0 46.334841v34.287783h56.991855a347.511312 347.511312 0 0 0-56.991855-34.287783z m225.650679 34.287783h43.091403a509.683258 509.683258 0 0 0-261.328507-180.705882h-5.560181v27.800905a475.395475 475.395475 0 0 1 225.650679 152.904977z m76.915837-23.630769v-46.334842a558.334842 558.334842 0 0 0-134.371041-108.886878H159.391855a524.973756 524.973756 0 0 1 191.362896 157.075113z m0-107.960181v-48.651584H290.982805a609.303167 609.303167 0 0 1 60.698643 34.751131z"
    p-id="8014" fill="#ffffff"></path>
</svg>