<svg t="1625840715443" class="icon" viewBox="0 0 1024 1024" version="1.1" xmlns="http://www.w3.org/2000/svg" p-id="5910" width="300" height="300"><path d="M461.494857 955.392H187.721143a133.302857 133.302857 0 0 1-14.116572-0.841143c9.472 1.097143 3.291429 0.438857 1.243429 0.073143a111.213714 111.213714 0 0 1-20.809143-5.924571c-5.741714-2.194286 6.692571 2.998857 1.097143 0.438857a111.433143 111.433143 0 0 1-12.946286-6.985143c-2.230857-1.389714-12.544-9.179429-4.571428-2.889143a114.944 114.944 0 0 1-14.08-13.421714c-1.097143-1.206857-2.121143-2.450286-3.145143-3.693715-3.876571-4.717714 4.278857 5.814857 0.694857 0.877715a114.212571 114.212571 0 0 1-10.825143-18.285715c-0.877714-1.828571-3.181714-7.497143 0.365714 1.097143a114.834286 114.834286 0 0 1-7.021714-25.856c1.645714 10.532571 0-1.389714-0.109714-4.022857a100.717714 100.717714 0 0 1-0.109714-5.266286V168.118857c0-2.340571 0.073143-4.644571 0.219428-6.985143 0.073143-1.718857 0.256-3.437714 0.402286-5.156571 0.621714-6.4-1.133714 7.497143-0.146286 1.206857 1.097143-7.204571 3.108571-14.262857 5.558857-21.101714 0.731429-1.901714 3.145143-7.533714-0.512 1.024a109.092571 109.092571 0 0 1 6.765715-13.129143c1.682286-2.816 3.510857-5.485714 5.412571-8.155429 3.510857-4.973714-4.498286 5.632-0.731429 0.877715a114.432 114.432 0 0 1 11.117715-11.849143c1.755429-1.645714 10.752-8.777143 2.706285-2.56a114.176 114.176 0 0 1 22.418286-13.275429c-8.411429 3.803429-2.925714 1.28-1.024 0.548572a111.798857 111.798857 0 0 1 19.273143-5.339429c2.011429-0.365714 8.265143-1.170286-1.243429 0.073143a113.371429 113.371429 0 0 1 15.177143-0.841143h626.176c3.437714 0.036571 6.875429 0.292571 10.313143 0.621714 6.326857 0.621714-7.460571-1.133714-1.206857-0.146285a113.883429 113.883429 0 0 1 16.237714 3.986285c2.340571 0.731429 13.056 5.193143 3.657143 1.097143 6.509714 2.816 12.653714 6.4 18.505143 10.386286l3.949714 2.852571c-7.314286-5.449143-2.523429-1.901714-0.987428-0.621714a114.468571 114.468571 0 0 1 13.714285 13.824c1.28 1.499429 4.900571 6.363429-0.621714-0.950857a114.870857 114.870857 0 0 1 13.129143 22.637714c-4.169143-9.435429 0.329143 1.28 1.097143 3.657143a112.64 112.64 0 0 1 3.949714 16.347429c1.097143 6.326857-0.841143-7.570286-0.146286-1.170286 0.365714 3.437714 0.548571 6.948571 0.621715 10.386286v427.995428c0 16.384 13.531429 30.061714 29.805714 30.061714a30.171429 30.171429 0 0 0 29.769143-30.061714V168.704a148.114286 148.114286 0 0 0-20.406857-75.044571c-17.298286-29.257143-44.251429-50.029714-75.52-62.025143-20.918857-8.045714-42.898286-8.228571-64.841143-8.228572H207.798857c-19.273143 0-37.961143-0.109714-56.978286 4.717715-62.354286 15.798857-107.008 75.702857-107.008 140.068571V866.304c0 42.057143 15.433143 82.651429 46.738286 111.177143a146.102857 146.102857 0 0 0 91.611429 37.814857c6.692571 0.365714 13.421714 0.109714 20.114285 0.109714h259.218286a30.208 30.208 0 0 0 29.769143-29.988571 30.171429 30.171429 0 0 0-29.769143-30.061714zM789.942857 851.382857c-35.766857 37.595429-88.210286 95.670857-88.210286 95.670857s-35.035429-34.998857-64-61.074285c-12.141714-10.898286-30.171429-12.068571-42.130285 0-10.971429 11.081143-12.141714 31.561143 0 42.459428l86.966857 78.226286c11.922286 10.715429 30.427429 12.288 42.130286 0l115.931428-121.819429 107.410286-112.822857a30.573714 30.573714 0 0 0 0-42.459428c-11.300571-11.410286-30.902857-11.812571-42.130286 0L789.942857 851.382857zM306.322286 311.588571H694.235429a30.171429 30.171429 0 0 0 29.769142-30.061714 30.171429 30.171429 0 0 0-29.769142-30.025143H306.358857a30.171429 30.171429 0 0 0-29.805714 30.025143c0 16.384 13.531429 30.025143 29.769143 30.025143z m0 234.605715H694.235429a30.171429 30.171429 0 0 0 29.769142-30.025143 30.171429 30.171429 0 0 0-29.769142-30.025143H306.358857a30.171429 30.171429 0 0 0-29.805714 29.988571c0 16.384 13.531429 30.061714 29.769143 30.061715z m0 234.642285h155.172571a30.171429 30.171429 0 0 0 29.769143-30.025142 30.171429 30.171429 0 0 0-29.769143-30.061715H306.322286a30.208 30.208 0 0 0-29.769143 30.061715c0 16.347429 13.531429 29.988571 29.769143 29.988571z" p-id="5911" fill="#ffffff"></path></svg>
