<svg t="1625966569343" class="icon" viewBox="0 0 1024 1024" version="1.1" xmlns="http://www.w3.org/2000/svg" p-id="17658" width="300" height="300"><path d="M354.850133 799.744c-44.032 0-79.291733-35.259733-79.291733-74.888533v-202.820267a79.872 79.872 0 0 1 79.906133-79.940267h46.318934c0.341333 0 0.6144-0.273067 0.6144-0.6144v-75.093333c0-66.048 40.516267-106.564267 106.564266-106.564267 66.048 0 106.5984 40.516267 106.5984 106.5984v75.093334c0 0.341333 0.273067 0.648533 0.6144 0.648533h41.915734a79.872 79.872 0 0 1 79.940266 79.872v202.205867c0 41.6768-33.792 75.4688-75.4688 75.4688h-307.712z m0.6144-309.1456a31.4368 31.4368 0 0 0-31.470933 31.4368v202.205867c0 17.373867 14.097067 31.4368 31.470933 31.4368h298.222934a31.4368 31.4368 0 0 0 31.4368-31.4368v-202.205867a31.4368 31.4368 0 0 0-31.4368-31.402667h-298.222934z m206.6432-48.469333c0.341333 0 0.6144-0.3072 0.6144-0.648534v-75.093333c0-39.594667-18.500267-58.129067-58.129066-58.129067-35.259733 0-53.76 18.5344-53.76 58.1632v75.093334c0 0.341333 0.273067 0.648533 0.6144 0.648533l110.660266-0.068267z" p-id="17659" fill="#ffffff"></path><path d="M509.474133 1016.695467c-272.554667 0-494.592-222.071467-494.592-494.592S236.885333 27.511467 509.44 27.511467c115.063467 0 220.228267 39.697067 310.545067 109.226666a1.092267 1.092267 0 0 0 1.7408-1.092266l-19.5584-92.8768a1.024 1.024 0 0 1 0-0.238934c0-5.051733 0-14.916267 4.9152-19.968l0.2048-0.238933c4.983467-10.001067 10.001067-15.018667 15.018666-15.018667h4.983467c10.103467 0 25.258667 10.103467 25.258667 20.206934l35.293866 181.521066v5.154134c0 15.121067-10.103467 25.224533-20.1728 25.224533l-181.521066 35.293867h-5.154134c-10.103467 0-25.258667-10.069333-25.258666-20.1728 0-5.051733 0-15.121067 5.051733-20.1728 5.051733-5.051733 10.103467-10.103467 15.1552-10.103467l129.092267-24.8832a1.092267 1.092267 0 0 0 0.546133-1.877333c-94.890667-88.064-224.1536-127.6928-355.4304-110.7968-200.704 26.0096-356.7616 187.869867-377.412267 389.154133-26.043733 253.678933 164.932267 469.572267 409.634134 484.488533 253.269333 15.428267 466.193067-188.074667 466.1248-441.719466 0-25.6-0.170667-47.684267-3.618134-69.358934-0.887467-5.461333-2.56-12.8-3.6864-18.3296a55.9104 55.9104 0 0 1-1.365333-11.707733 13.175467 13.175467 0 0 1 1.501867-4.642133c1.297067-2.56 6.2464-11.707733 22.254933-13.550934h5.051733c15.121067 0 24.029867 10.9568 30.242134 30.1056v0.170667c4.949333 12.868267 10.0352 52.1216 10.069333 90.760533 0.273067 272.554667-227.089067 494.592-499.643733 494.592h0.136533z" p-id="17660" fill="#ffffff"></path></svg>
